<?xml version="1.0" encoding="utf-8"?>
<!-- Generator: Adobe Illustrator 17.1.0, SVG Export Plug-In . SVG Version: 6.00 Build 0)  -->
<!DOCTYPE svg PUBLIC "-//W3C//DTD SVG 1.1//EN" "http://www.w3.org/Graphics/SVG/1.1/DTD/svg11.dtd">
<svg version="1.1" id="Capa_1" xmlns="http://www.w3.org/2000/svg" xmlns:xlink="http://www.w3.org/1999/xlink" x="0px" y="0px"
	 viewBox="0 0 800 800" enable-background="new 0 0 800 800" xml:space="preserve">
<ellipse fill="#FFFFFF" cx="401.7" cy="251" rx="220.3" ry="231.9"/>
<path fill="#010002" d="M400,0C261.2,0,147.8,113.4,147.8,252.2S400,800,400,800s252.2-409,252.2-549C652.2,112.2,538.8,0,400,0z
	 M400,448.9c-113.4,0-205.1-91.7-205.1-205.1S286.6,38.6,400,38.6s205.1,91.7,205.1,205.1C603.9,357.2,512.2,448.9,400,448.9z"/>
<path fill="#010002" d="M498.3,325h62.9V213.3c-8.7-2.8-100.3-32.1-161.2-32.1s-152.5,29.3-161.2,32.1V325h62.9
	c0.5-53.7,44.4-97.1,98.3-97.1S497.8,271.3,498.3,325z"/>
</svg>
